<?xml version="1.0" encoding="UTF-8"?>
<svg id="Layer_2" data-name="Layer 2" xmlns="http://www.w3.org/2000/svg" viewBox="0 0 136.21 136.21">
  <defs>
    <style>
      .cls-1 {
        fill: #424143;
      }

      .cls-2 {
        fill: #4d5a31;
      }

      .cls-3 {
        fill: #6ba43a;
      }

      .cls-4 {
        fill: #93d500;
      }
    </style>
  </defs>
  <g id="Layer_1-2" data-name="Layer 1">
    <g>
      <g>
        <path class="cls-4" d="m35.99,78.32H.05c0,.18.01.35.02.53.01.34.04.68.06,1.01,0,.15.02.29.03.43.03.39.06.78.1,1.17,0,.09.02.18.02.26.04.43.09.87.14,1.29,0,.04,0,.08.01.12.06.46.12.93.18,1.39,0,0,0,.01,0,.02.41,2.87,1.03,5.7,1.86,8.49,0,.01,0,.02,0,.04.13.44.27.88.4,1.31,0,.03.02.05.02.08s.02.05.02.08c.13.39.26.78.4,1.18.04.1.07.2.1.3.12.34.24.68.37,1.02.06.15.12.31.17.46.11.28.22.56.33.84.08.21.17.42.26.63.09.22.18.44.27.66.12.27.23.53.35.8.07.16.14.32.21.48.15.32.3.64.45.96.05.1.1.21.15.31.18.37.36.73.54,1.09.03.06.06.11.09.17.21.4.41.8.63,1.19,0,.02.02.03.03.05.04.08.1.16.14.24l30.7-18.49.11-.07c-1.21-2.55-1.97-5.27-2.25-8.03Z"/>
        <polygon class="cls-4" points="1.75 94.81 1.76 94.84 2.92 94.47 1.75 94.81"/>
        <path class="cls-2" d="m44.83,94.82l-.09.09-25.32,25.32c.13.12.26.24.39.36.24.21.48.43.72.64.12.11.25.22.37.33.29.25.58.49.87.73.08.07.16.13.23.2.32.27.66.53.99.79.04.03.09.07.13.1.36.28.72.56,1.09.83.02,0,.03.02.04.03,1.52,1.14,3.1,2.21,4.74,3.2.06.04.11.07.17.1.31.18.62.37.93.55.19.11.38.22.57.33.18.1.36.21.54.3.33.18.66.36.99.53.04.02.09.05.14.07.92.48,1.86.93,2.8,1.36h0l.9-2.18,12.73-30.92.05-.12c-1.39-.74-2.72-1.62-3.97-2.65Z"/>
        <path class="cls-3" d="m42.19,92.3c-.27-.3-.53-.62-.79-.93-.23-.28-.45-.56-.66-.85-.24-.33-.48-.66-.7-.99-.23-.34-.45-.68-.66-1.02l-30.74,18.51c.47.78.96,1.55,1.47,2.3.02.03.03.05.05.08h0s.01.02.02.03c.02.02.03.05.05.08,0,0,0,0,0,0,.04.06.08.12.12.18,0,0,0,0,0,.01h0s0,0,0,0c.53.79,1.08,1.57,1.65,2.32.01.02.02.03.04.05.01.02.02.03.04.05.24.33.49.65.75.97.03.04.07.08.1.12.26.33.53.66.79.99.06.08.13.15.19.23.24.29.49.58.74.87.11.12.22.25.32.37.21.24.42.48.64.72.12.13.24.26.36.39.05.06.11.12.16.18.16.17.32.34.48.51.06.07.13.13.2.2.28.29.56.58.85.87l25.35-25.35c-.29-.29-.56-.59-.83-.89Z"/>
        <path class="cls-2" d="m75.8,94.81c-.28.23-.56.45-.85.66l.06.1,18.49,30.69c.86-.56,1.7-1.13,2.53-1.74,1.79-1.32,3.52-2.75,5.19-4.29l-25.32-25.32-.1-.1Z"/>
        <path class="cls-4" d="m91.17,127.72s.03-.01.04-.02h0s-.03.01-.04.02h0Z"/>
        <polygon class="cls-4" points="91.15 127.73 91.15 127.73 91.15 127.73 91.15 127.73 91.15 127.73"/>
        <path class="cls-4" d="m91.21,127.7h0c.08-.04.16-.09.24-.13h0c-.08.04-.16.09-.24.13Z"/>
        <polygon class="cls-4" points="91.15 127.73 91.17 127.72 91.16 127.72 91.15 127.73"/>
        <polygon class="cls-4" points="91.15 127.73 91.15 127.73 91.1 127.66 91.15 127.73"/>
        <path class="cls-4" d="m91.17,127.72h0s.03-.01.04-.02h0s-.03.01-.04.02Z"/>
        <polygon class="cls-4" points="91.13 127.74 91.13 127.74 91.14 127.74 91.14 127.74 91.13 127.74"/>
        <polygon class="cls-4" points="91.15 127.73 91.14 127.74 91.14 127.74 91.15 127.73 91.15 127.73"/>
        <path class="cls-4" d="m91.15,127.73s0,0,0,0h0s.01,0,.02,0h0s0,0-.01,0Z"/>
        <path class="cls-4" d="m91.21,127.7c.08-.05.16-.09.24-.14-.08.05-.16.09-.24.14h0Z"/>
        <polygon class="cls-4" points="91.45 127.56 91.44 127.55 91.44 127.55 91.45 127.56"/>
        <polygon class="cls-4" points="91.12 127.75 91.12 127.75 91.12 127.75 91.12 127.75"/>
        <polygon class="cls-4" points="91.13 127.74 91.12 127.75 91.12 127.75 91.13 127.74 91.13 127.74 91.13 127.74"/>
        <path class="cls-4" d="m90.81,126.51l-.63-1.04-17.26-28.64c-.35.21-.71.4-1.06.59-.36.19-.72.37-1.09.55-3.32,1.57-6.9,2.38-10.5,2.38-2.35,0-4.71-.34-6.98-1.02-.39-.12-.77-.27-1.15-.4s-.77-.25-1.15-.41l-12.73,30.9-.5,1.21-.43,1.04h0s.07.03.1.04c.04.01.07.03.1.04h0s0,0,0,0c0,0,.02,0,.02,0,.3.12.6.23.9.35.38.15.76.3,1.14.43.19.07.39.15.58.22h0c3.99,1.41,8.11,2.39,12.31,2.95.16.02.33.04.49.07.17.02.34.04.52.06.32.04.65.07.97.11.08,0,.16.01.24.02.4.04.79.07,1.19.1.13,0,.27.02.4.02.35.02.7.04,1.04.06.21.01.43.02.64.03.28,0,.55.02.83.03.4,0,.8.01,1.2.01.1,0,.19,0,.28,0,3.35,0,6.7-.28,10.01-.83h0c.06,0,.11-.02.17-.03.35-.06.7-.13,1.05-.19.2-.04.4-.08.6-.12.2-.04.41-.09.61-.13.34-.07.68-.15,1.02-.23.06-.01.12-.03.18-.04,5.04-1.17,9.9-2.99,14.47-5.39h0c.3-.16.59-.34.89-.5.36-.19.71-.4,1.06-.6.24-.14.49-.27.73-.41,0,0,0,0,0,0,0,0,0,0,0,0h0s0,0,.01,0c0,0,0,0,0,0l-.04-.08.05.08s0,0,0,0c0,0,0,0,.01,0,.01,0,.03-.02.04-.02.08-.05.16-.1.24-.14h0l-.62-1.04Z"/>
        <path class="cls-4" d="m44.84,56.97c.28-.23.56-.44.85-.66l-.06-.11-18.49-30.69c-.86.56-1.71,1.14-2.54,1.75-1.79,1.32-3.52,2.75-5.18,4.28l25.32,25.32.1.1Z"/>
        <path class="cls-2" d="m17.67,33.24c-.29.29-.56.59-.84.88s-.57.58-.84.88c-1.87,2.03-3.58,4.14-5.12,6.35-.07.1-.15.21-.22.32-.17.25-.35.51-.51.76-.18.26-.35.53-.52.8-.06.1-.13.2-.19.29C3.59,52.65.47,63.01.05,73.46c-.02.4-.02.81-.03,1.22s-.02.81-.02,1.22h35.86c0-.41.04-.81.06-1.22s.03-.81.07-1.22c.46-4.67,2.27-9.23,5.41-13.06.26-.31.54-.6.82-.9s.53-.61.82-.9l-25.36-25.35Z"/>
        <path class="cls-2" d="m91.66,24.34s-.1-.06-.15-.09c-.32-.19-.63-.38-.95-.57-.18-.11-.37-.21-.55-.32-.19-.1-.37-.21-.56-.31-.32-.18-.65-.35-.97-.53-.05-.03-.1-.05-.15-.08-2.1-1.1-4.26-2.07-6.47-2.91-.06-.02-.11-.04-.17-.07-.48-.18-.96-.36-1.45-.53-3.92-1.37-7.97-2.33-12.08-2.87-.17-.02-.34-.05-.5-.07-.17-.02-.34-.04-.5-.06-.32-.04-.65-.07-.97-.11-.09,0-.18-.01-.27-.02-.39-.04-.77-.07-1.16-.1-.15-.01-.3-.02-.45-.03-.33-.02-.66-.04-1-.06-.18,0-.35-.01-.53-.02v35.81s0,.14,0,.14c1.84.19,3.67.58,5.45,1.19l26.45-26.45c-.98-.68-1.98-1.34-3-1.96Z"/>
        <polygon class="cls-3" points="29.83 25.27 29.2 24.23 29.2 24.23 29.83 25.27"/>
        <polygon class="cls-3" points="29.19 24.22 29.2 24.23 29.2 24.23 29.19 24.22"/>
        <path class="cls-3" d="m59.1,15.6c-.4,0-.81,0-1.22.03-2.54.1-5.07.36-7.58.78-.05,0-.11.02-.17.03-.35.06-.7.12-1.05.19-.2.04-.4.07-.6.11-.21.04-.41.08-.62.13-.34.07-.68.14-1.02.22h0c-.06.01-.12.03-.19.04-5.04,1.17-9.9,2.99-14.47,5.4h0c-.3.16-.59.34-.89.5-.35.19-.71.39-1.06.6-.26.15-.53.29-.79.44,0,0,0,0,0,0,0,0,0,0,0,0-.02.01-.04.02-.05.03-.07.04-.14.07-.21.12h0s.63,1.05.63,1.05h0l17.88,29.69c.35-.21.71-.4,1.06-.59.36-.19.72-.38,1.09-.55,2.55-1.22,5.27-1.97,8.03-2.25.4-.04.81-.07,1.22-.1.4-.02.81-.04,1.22-.04V15.57c-.4,0-.81.02-1.22.03Z"/>
        <path class="cls-2" d="m120.57,72.93c-.02-.32-.04-.64-.06-.97-.01-.16-.02-.32-.03-.48-.03-.38-.06-.76-.09-1.14,0-.1-.02-.2-.03-.29-.04-.42-.09-.85-.14-1.27,0-.03,0-.07-.01-.1,0-.02,0-.03,0-.05-.06-.46-.12-.91-.18-1.37,0-.01,0-.03,0-.04-.41-2.86-1.03-5.69-1.85-8.48,0-.02-.01-.04-.02-.05-.13-.43-.26-.86-.4-1.29-.02-.06-.04-.11-.05-.17-.13-.39-.26-.77-.39-1.16-.04-.1-.07-.21-.11-.31-.12-.33-.24-.67-.36-1-.06-.16-.12-.32-.18-.47-.11-.28-.21-.55-.32-.82-.09-.22-.17-.43-.27-.65-.09-.21-.18-.43-.27-.64-.12-.27-.24-.54-.36-.82-.07-.15-.14-.31-.21-.46-.15-.32-.3-.65-.45-.97-.05-.1-.09-.2-.14-.29-.18-.37-.36-.74-.55-1.1-.03-.05-.05-.1-.08-.15-.21-.4-.42-.81-.63-1.2,0-.01-.02-.03-.02-.04-1.05-1.92-2.19-3.78-3.43-5.57l-26.46,26.46c.6,1.77.99,3.6,1.18,5.44h35.95c0-.18-.01-.36-.02-.53Z"/>
        <path class="cls-3" d="m84.78,75.89c0,.41-.04.81-.06,1.22-.02.41-.03.81-.07,1.22-.46,4.67-2.27,9.23-5.41,13.06-.26.31-.54.6-.82.9-.27.3-.53.61-.82.9l25.36,25.35c.29-.29.56-.59.84-.88s.57-.58.84-.88c1.88-2.03,3.59-4.16,5.14-6.37.06-.09.12-.17.18-.26.19-.27.37-.54.56-.82.16-.24.32-.49.48-.74.08-.12.15-.24.23-.36,5.82-9.13,8.93-19.48,9.35-29.92.02-.4.02-.81.03-1.22,0-.4.02-.81.02-1.22h-35.86Z"/>
      </g>
      <path class="cls-1" d="m131.29,4.92c-6.56-6.56-17.2-6.56-23.76,0-5.23,5.23-6.28,13.06-3.16,19.34l-36.59,36.59c-6.28-3.11-14.1-2.07-19.34,3.16-6.56,6.56-6.56,17.2,0,23.76,6.56,6.56,17.2,6.56,23.76,0,5.23-5.23,6.28-13.06,3.16-19.34l36.59-36.59c6.28,3.12,14.1,2.07,19.34-3.16,6.56-6.56,6.56-17.2,0-23.76Z"/>
    </g>
  </g>
</svg>